<?xml version="1.0" encoding="UTF-8"?>
<svg id="Layer_2" data-name="Layer 2" xmlns="http://www.w3.org/2000/svg" viewBox="0 0 2877.7 495.13">
  <g id="Layer_2-2" data-name="Layer 2">
    <g>
      <path d="m163.82,454.73c-3.91,0-7.07-.08-9.33-.16-65.69-2.44-116.47-31.58-147.51-55.59-7.86-6.08-9.3-17.39-3.22-25.25,6.08-7.86,17.39-9.3,25.25-3.22,26.86,20.79,70.67,46,126.81,48.09,11.53.42,113.52,2.54,141.42-54.83,3.22-6.61,13.04-29.74,4.46-49.66-3.04-7.07-10.18-23.62-114.22-51.62-24.63-6.63-44.66-11.22-62.34-15.27-48.84-11.19-75.75-17.36-94.21-46.06-15.19-23.61-18.81-55.24-9.45-82.53,9.11-26.58,30.36-47.27,63.16-61.49,24.77-10.74,49.72-15.05,63.12-17.37,72.27-12.5,133.98,11.9,173.02,34.57,8.6,4.99,11.52,16.01,6.53,24.6-4.99,8.6-16.01,11.52-24.6,6.53-33.88-19.67-87.21-40.88-148.82-30.23-20.9,3.61-84.49,14.61-98.36,55.06-4.39,12.81-5.54,33.95,5.67,51.39,10.04,15.61,25.29,19.74,71.97,30.44,17.09,3.92,38.37,8.79,63.65,15.6,101.09,27.2,127.12,47.05,137.93,72.14,14.24,33.06,1.15,66.72-5.14,79.65-33.41,68.69-130.3,75.22-165.81,75.22Z"/>
      <path d="m468.89,456.99h-.1c-10.04-.05-18.14-8.14-18.09-18.06l.81-155.94,209.54.24c14.74-1.29,50.31-7.5,78.11-36.95,20.9-22.15,31.58-45.79,30.86-68.36-1.34-42.5-42.5-82.6-98.15-95.93l-212.86-.72c-11.91-.04-21.09-11.54-17.16-24.02,2.33-7.38,9.35-12.27,17.09-12.27,0,0-.19,0-.17,0l217.63.73,1.94.44c35.76,8.13,67.08,24.96,90.55,48.68,23.58,23.82,37.07,53,37.99,82.15,1.03,32.49-13.09,65.19-40.82,94.57-36.96,39.16-83.99,46.87-102.49,48.37l-.74.06-175.14-.2-.63,119.34c-.05,9.89-8.18,17.87-18.18,17.87Z"/>
      <path d="m1154.59,495.13l-177.16-59.86-169.49,58.36,171.54-356.81,175.1,358.31Zm-177.22-80.99l138.2,46.7-135.94-278.17-132.91,276.45,130.65-44.99Z"/>
      <path d="m976.7,99.07V5.85c0-2.4,1.61-4.61,3.97-5.08,3.21-.64,6.03,1.8,6.03,4.9v93.6c0,3.1-2.82,5.54-6.03,4.9-2.36-.47-3.97-2.68-3.97-5.08Z"/>
      <path d="m1414.99,451.01c-6.65,0-13.42-.26-20.32-.8-79.48-6.25-126.9-37.74-152.68-63.06-.93-.91-1.65-1.64-1.94-1.93-6.11-6.18-59.52-62.49-59.61-141.93-.12-106.73,95.08-166.97,105.93-173.49,55.18-33.13,108.85-31.28,137.69-30.28,69.19,2.39,122.92,28.78,155.81,50.49,8.3,5.48,10.58,16.64,5.11,24.94-5.48,8.3-16.64,10.58-24.94,5.11-29.03-19.16-76.41-42.45-137.23-44.55-26.88-.93-71.86-2.49-117.91,25.16-2.53,1.52-25.39,15.59-47.18,40.53-27.43,31.39-41.32,65.73-41.28,102.06.07,66.2,47.18,114.61,49.19,116.64.23.24.82.83,1.58,1.57,21.53,21.14,61.6,47.47,130.29,52.87,73.62,5.79,131.34-26.38,159.2-46.07,8.12-5.74,19.35-3.81,25.09,4.31,5.74,8.12,3.81,19.35-4.31,25.09-29.24,20.67-87.38,53.36-162.48,53.37Z"/>
      <path d="m1693.7,437.97V52.87c0-9.38,7.02-17.51,16.36-18.33,10.68-.94,19.64,7.45,19.64,17.93v385.92c0,10.48-8.96,18.87-19.64,17.93-9.35-.83-16.36-8.95-16.36-18.33Z"/>
      <path d="m2067.42,453.92c-29.58,0-96.91-2.22-144.11-54.97-28.18-31.49-37.57-67.79-40.48-92.71l-.12-1.04V49.27c0-9.38,7.02-17.51,16.37-18.33,10.68-.94,19.63,7.45,19.63,17.93v254.21c2.44,19.71,9.9,47.83,31.38,71.88,38.67,43.29,96.37,43.06,121,42.96,26.54-.1,66.64-.26,101.22-30.18,33.06-28.6,41.35-68.07,43.4-84.71l1.43-253.14c.06-9.91,8.1-17.9,17.98-17.9.04,0,.65,0,.68,0,9.95.06,17.96,8.16,17.91,18.1l-1.45,255.15-.11.98c-2.91,25.12-14.04,72.66-55.82,108.75-44.72,38.63-96.82,38.83-124.81,38.94-1.27,0-2.64,0-4.09,0Z"/>
      <path d="m2861.34,457.75c-10.68.94-19.63-7.45-19.63-17.93V117.97l-200.39,291.4-200.61-293.71-1.83,322.43c-.06,9.91-8.11,17.9-18.01,17.9-.04,0,.76,0,.73,0-9.93-.06-17.94-8.16-17.88-18.1l2.49-437.89,235.64,345.65L2877.7,2v437.41c0,9.38-7.02,17.51-16.37,18.33Z"/>
    </g>
  </g>
</svg>