<?xml version="1.0" encoding="UTF-8"?>
<svg id="Layer_2" data-name="Layer 2" xmlns="http://www.w3.org/2000/svg" xmlns:xlink="http://www.w3.org/1999/xlink" viewBox="0 0 2915.14 750.7">
  <defs>
    <style>
      .cls-1 {
        fill: url(#linear-gradient-2);
      }

      .cls-2 {
        fill: url(#linear-gradient-6);
      }

      .cls-3 {
        fill: #fff;
        font-family: CenturyGothic, 'Century Gothic';
        font-size: 122px;
      }

      .cls-4 {
        fill: url(#linear-gradient-5);
      }

      .cls-5 {
        fill: url(#linear-gradient-7);
      }

      .cls-6 {
        fill: url(#linear-gradient-3);
      }

      .cls-7 {
        fill: url(#linear-gradient);
      }

      .cls-8 {
        fill: url(#linear-gradient-4);
      }

      .cls-9 {
        fill: url(#linear-gradient-8);
      }
    </style>
    <linearGradient id="linear-gradient" x1="3100.39" y1="490.44" x2="672.55" y2="287.4" gradientUnits="userSpaceOnUse">
      <stop offset="0" stop-color="#f8f5d0"/>
      <stop offset=".21" stop-color="#f7f2cc"/>
      <stop offset=".38" stop-color="#f6ecc2"/>
      <stop offset=".53" stop-color="#f4e1b1"/>
      <stop offset=".68" stop-color="#f1d199"/>
      <stop offset=".83" stop-color="#eebd7a"/>
      <stop offset=".96" stop-color="#eaa554"/>
      <stop offset="1" stop-color="#e99e49"/>
    </linearGradient>
    <linearGradient id="linear-gradient-2" x1="3100.69" y1="462.1" x2="674.75" y2="259.22" xlink:href="#linear-gradient"/>
    <linearGradient id="linear-gradient-3" x1="3099.6" y1="499.95" x2="671.76" y2="296.91" xlink:href="#linear-gradient"/>
    <linearGradient id="linear-gradient-4" x1="3055.67" y1="226.19" x2="702.98" y2="29.44" xlink:href="#linear-gradient"/>
    <linearGradient id="linear-gradient-5" x1="3109.03" y1="387.09" x2="681.19" y2="184.05" xlink:href="#linear-gradient"/>
    <linearGradient id="linear-gradient-6" x1="3122.44" y1="363.66" x2="675.25" y2="159.01" xlink:href="#linear-gradient"/>
    <linearGradient id="linear-gradient-7" x1="3116.06" y1="323.74" x2="686.28" y2="120.54" xlink:href="#linear-gradient"/>
    <linearGradient id="linear-gradient-8" x1="3119.64" y1="268.31" x2="692.19" y2="65.31" xlink:href="#linear-gradient"/>
  </defs>
  <g id="Layer_2-2" data-name="Layer 2">
    <g>
      <g>
        <path class="cls-7" d="m163.82,454.99c-3.91,0-7.07-.08-9.33-.16-65.69-2.44-116.47-31.58-147.51-55.59-7.86-6.08-9.3-17.39-3.22-25.25,6.08-7.86,17.39-9.3,25.25-3.22,26.86,20.79,70.67,46,126.81,48.09,11.53.42,113.52,2.54,141.42-54.83,3.22-6.61,13.04-29.74,4.46-49.66-3.04-7.07-10.18-23.62-114.22-51.62-24.63-6.63-44.66-11.22-62.34-15.27-48.84-11.19-75.75-17.36-94.21-46.06-15.19-23.61-18.81-55.24-9.45-82.53,9.11-26.58,30.36-47.27,63.16-61.49,24.77-10.74,49.72-15.05,63.12-17.37,72.27-12.5,133.98,11.9,173.02,34.57,8.6,4.99,11.52,16.01,6.53,24.6-4.99,8.6-16.01,11.52-24.6,6.53-33.88-19.67-87.21-40.88-148.82-30.23-20.9,3.61-84.49,14.61-98.36,55.06-4.39,12.81-5.54,33.95,5.67,51.39,10.04,15.61,25.29,19.74,71.97,30.44,17.09,3.92,38.37,8.79,63.65,15.6,101.09,27.2,127.12,47.05,137.93,72.14,14.24,33.06,1.15,66.72-5.14,79.65-33.41,68.69-130.3,75.22-165.81,75.22Z"/>
        <path class="cls-1" d="m468.79,455.99h-.1c-9.92-.05-17.92-8.12-17.87-18.02l.81-155.27,210.15.24c14.79-1.3,50.46-7.52,78.34-37.06,20.96-22.21,31.67-45.92,30.95-68.56-1.35-42.62-42.62-82.84-98.44-96.21l-213.76-.71c-11.76-.04-20.83-11.4-16.94-23.72,2.3-7.29,9.24-12.11,16.88-12.11,0,0,.14,0,.16,0l217.37.73,1.94.44c35.72,8.12,67,24.93,90.45,48.62,23.55,23.79,37.03,52.93,37.95,82.06,1.03,32.45-13.07,65.11-40.77,94.46-36.92,39.12-83.89,46.82-102.37,48.31l-.74.06-175.44-.2-.62,119.12c-.05,9.87-8.08,17.83-17.96,17.83Z"/>
        <path class="cls-6" d="m1154.59,495.38l-177.16-59.86-169.49,58.36,171.54-356.81,175.1,358.31Zm-177.22-80.99l138.2,46.7-135.94-278.17-132.91,276.45,130.65-44.99Z"/>
        <path class="cls-8" d="m976.6,99.52V5.91c0-2.3,1.52-4.43,3.76-4.9,3.02-.63,5.67,1.81,5.67,4.9v93.6c0,3.09-2.65,5.53-5.67,4.9-2.25-.47-3.76-2.6-3.76-4.9Z"/>
        <path class="cls-4" d="m1414.99,451.26c-6.65,0-13.42-.26-20.32-.8-79.48-6.25-126.9-37.74-152.68-63.06-.93-.91-1.65-1.64-1.94-1.93-6.11-6.18-59.52-62.49-59.61-141.93-.12-106.73,95.08-166.97,105.93-173.49,55.18-33.13,108.85-31.28,137.69-30.28,69.19,2.39,122.92,28.78,155.81,50.49,8.3,5.48,10.58,16.64,5.11,24.94-5.48,8.3-16.64,10.58-24.94,5.11-29.03-19.16-76.41-42.45-137.23-44.55-26.88-.93-71.86-2.49-117.91,25.16-2.53,1.52-25.39,15.59-47.18,40.53-27.43,31.39-41.32,65.73-41.28,102.06.07,66.2,47.18,114.61,49.19,116.64.23.24.82.83,1.58,1.57,21.53,21.14,61.6,47.47,130.29,52.87,73.62,5.79,131.34-26.38,159.2-46.07,8.12-5.74,19.35-3.81,25.09,4.31,5.74,8.12,3.81,19.35-4.31,25.09-29.24,20.67-87.38,53.36-162.48,53.37Z"/>
        <path class="cls-2" d="m1693.34,438.24V53.11c0-8.36,5.55-15.89,13.68-17.85,12.08-2.9,22.87,6.03,22.87,17.45v385.92c0,11.42-10.79,20.35-22.87,17.45-8.13-1.95-13.68-9.49-13.68-17.84Z"/>
        <path class="cls-5" d="m2068.03,453.53c-29.61,0-97-2.22-144.25-54.97-28.2-31.49-37.6-67.79-40.52-92.71l-.12-1.04V49.39c0-8.33,5.53-15.83,13.61-17.83,12.11-2.99,22.93,6.09,22.93,17.7v253.42c2.43,19.71,9.86,47.83,31.26,71.88,38.52,43.29,96.01,43.06,120.55,42.96,26.44-.1,66.39-.26,100.84-30.18,32.94-28.6,41.19-68.07,43.24-84.71l1.43-253.14c.06-9.91,8.07-17.9,17.91-17.9.03,0,1.61,0,1.64,0,9.96.06,17.98,8.16,17.92,18.1l-1.45,255.15-.11.98c-2.92,25.12-14.05,72.66-55.87,108.75-44.76,38.63-96.91,38.83-124.92,38.94-1.27,0-2.64,0-4.1,0Z"/>
        <path class="cls-9" d="m2864.48,457.63c-12.11,2.99-22.93-6.09-22.93-17.7V117.97l-200.29,291.4-200.52-293.71-1.83,322.43c-.06,9.91-8.11,17.9-18.01,17.9-.04,0,1.2,0,1.17,0-9.93-.06-17.93-8.16-17.88-18.1l2.49-437.89,235.59,345.65L2878.09,2v437.8c0,8.33-5.53,15.83-13.61,17.83Z"/>
      </g>
      <text class="cls-3" transform="translate(846.73 713.29)"><tspan x="0" y="0">Incubadora de Empresas | ISPTEC</tspan></text>
    </g>
  </g>
</svg>