<?xml version="1.0" encoding="UTF-8"?>
<svg id="Layer_2" data-name="Layer 2" xmlns="http://www.w3.org/2000/svg" viewBox="0 0 291.51 75.07">
  <defs>
    <style>
      .cls-1 {
        font-family: CenturyGothic, 'Century Gothic';
        font-size: 12.2px;
      }

      .cls-1, .cls-2 {
        fill: #305350;
      }
    </style>
  </defs>
  <g id="Layer_1-2" data-name="Layer 1">
    <g>
      <g>
        <path class="cls-2" d="m16.38,45.49c-.39,0-.71,0-.93-.02-6.57-.24-11.65-3.16-14.75-5.56-.79-.61-.93-1.74-.32-2.53.61-.79,1.74-.93,2.53-.32,2.69,2.08,7.07,4.6,12.68,4.81,1.15.04,11.35.25,14.14-5.48.32-.66,1.3-2.97.45-4.97-.3-.71-1.02-2.36-11.42-5.16-2.46-.66-4.47-1.12-6.23-1.53-4.88-1.12-7.57-1.74-9.42-4.61-1.52-2.36-1.88-5.52-.94-8.25.91-2.66,3.04-4.73,6.32-6.15,2.48-1.07,4.97-1.51,6.31-1.74,7.23-1.25,13.4,1.19,17.3,3.46.86.5,1.15,1.6.65,2.46-.5.86-1.6,1.15-2.46.65-3.39-1.97-8.72-4.09-14.88-3.02-2.09.36-8.45,1.46-9.84,5.51-.44,1.28-.55,3.4.57,5.14,1,1.56,2.53,1.97,7.2,3.04,1.71.39,3.84.88,6.37,1.56,10.11,2.72,12.71,4.71,13.79,7.21,1.42,3.31.11,6.67-.51,7.97-3.34,6.87-13.03,7.52-16.58,7.52Z"/>
        <path class="cls-2" d="m46.88,45.6h0c-.99,0-1.79-.81-1.79-1.8l.08-15.53,21.02.02c1.48-.13,5.05-.75,7.83-3.71,2.1-2.22,3.17-4.59,3.1-6.86-.13-4.26-4.26-8.28-9.84-9.62l-21.38-.07c-1.18,0-2.08-1.14-1.69-2.37.23-.73.92-1.21,1.69-1.21,0,0,.01,0,.02,0l21.74.07.19.04c3.57.81,6.7,2.49,9.04,4.86,2.36,2.38,3.7,5.29,3.79,8.21.1,3.24-1.31,6.51-4.08,9.45-3.69,3.91-8.39,4.68-10.24,4.83h-.07s-17.54-.01-17.54-.01l-.06,11.91c0,.99-.81,1.78-1.8,1.78Z"/>
        <path class="cls-2" d="m115.46,49.53l-17.72-5.99-16.95,5.84,17.15-35.68,17.51,35.83Zm-17.72-8.1l13.82,4.67-13.59-27.82-13.29,27.65,13.06-4.5Z"/>
        <path class="cls-2" d="m97.66,9.95V.59c0-.23.15-.44.38-.49.3-.06.57.18.57.49v9.36c0,.31-.26.55-.57.49-.22-.05-.38-.26-.38-.49Z"/>
        <path class="cls-2" d="m141.5,45.12c-.66,0-1.34-.03-2.03-.08-7.95-.62-12.69-3.77-15.27-6.31-.09-.09-.17-.16-.19-.19-.61-.62-5.95-6.25-5.96-14.19-.01-10.67,9.51-16.7,10.59-17.35,5.52-3.31,10.89-3.13,13.77-3.03,6.92.24,12.29,2.88,15.58,5.05.83.55,1.06,1.66.51,2.49-.55.83-1.66,1.06-2.49.51-2.9-1.92-7.64-4.24-13.72-4.46-2.69-.09-7.19-.25-11.79,2.52-.25.15-2.54,1.56-4.72,4.05-2.74,3.14-4.13,6.57-4.13,10.21,0,6.62,4.72,11.46,4.92,11.66.02.02.08.08.16.16,2.15,2.11,6.16,4.75,13.03,5.29,7.36.58,13.13-2.64,15.92-4.61.81-.57,1.94-.38,2.51.43.57.81.38,1.93-.43,2.51-2.92,2.07-8.74,5.34-16.25,5.34Z"/>
        <path class="cls-2" d="m169.33,43.82V5.31c0-.84.56-1.59,1.37-1.78,1.21-.29,2.29.6,2.29,1.74v38.59c0,1.14-1.08,2.03-2.29,1.74-.81-.2-1.37-.95-1.37-1.78Z"/>
        <path class="cls-2" d="m206.8,45.35c-2.96,0-9.7-.22-14.42-5.5-2.82-3.15-3.76-6.78-4.05-9.27v-.1s-.01-25.55-.01-25.55c0-.83.55-1.58,1.36-1.78,1.21-.3,2.29.61,2.29,1.77v25.35c.24,1.97.99,4.78,3.13,7.19,3.85,4.33,9.6,4.31,12.06,4.3,2.64-.01,6.64-.03,10.08-3.02,3.29-2.86,4.12-6.81,4.32-8.47l.14-25.31c0-.99.81-1.79,1.79-1.79,0,0,.16,0,.16,0,1,0,1.8.82,1.79,1.81l-.14,25.51v.1c-.3,2.51-1.42,7.27-5.6,10.87-4.48,3.86-9.69,3.88-12.49,3.89-.13,0-.26,0-.41,0Z"/>
        <path class="cls-2" d="m286.45,45.76c-1.21.3-2.29-.61-2.29-1.77V11.8l-20.03,29.14-20.05-29.37-.18,32.24c0,.99-.81,1.79-1.8,1.79,0,0,.12,0,.12,0-.99,0-1.79-.82-1.79-1.81l.25-43.79,23.56,34.56L287.81.2v43.78c0,.83-.55,1.58-1.36,1.78Z"/>
      </g>
      <text class="cls-1" transform="translate(88.27 71.33)"><tspan x="0" y="0">Incubadora de Empresas | ISPTEC</tspan></text>
    </g>
  </g>
</svg>